# xmcd CD database file
#
# Track frame offsets:
#	150
#	23294
#	38614
#	48203
#	67612
#	87414
#	104811
#	124393
#	138662
#	150749
#	162724
#	185435
#	207138
#	222757
#	237294
#	252772
#
# Disc length: 3589 seconds
#
# Revision: 0
# Processed by: cddbd v1.5PL3 Copyright (c) Steve Scherf et al.
# Submitted via: CDex 1.51
#
DISCID=d80e0310
DTITLE=Sojiro - Ocarina Etude Collection: Request CD1
DYEAR=2003
DGENRE=New Age
TTITLE0=El Condor Pasa
TTITLE1=Edelweiss
TTITLE2=Yesterday
TTITLE3=Aranjuez Mon Amour
TTITLE4=When You Wish Upon A Star
TTITLE5=Silent Night
TTITLE6=Over The Rainbow
TTITLE7=Melody Fair
TTITLE8=First Of May
TTITLE9=Try To Remember
TTITLE10=For The Peace Of All Mankind
TTITLE11=Memory
TTITLE12=Greensleevs
TTITLE13=Loch Lomond
TTITLE14=Londonderry air
TTITLE15=Beautiful Dreamer
EXTD=YEAR: 2003
EXTT0=
EXTT1=
EXTT2=
EXTT3=
EXTT4=
EXTT5=
EXTT6=
EXTT7=
EXTT8=
EXTT9=
EXTT10=
EXTT11=
EXTT12=
EXTT13=
EXTT14=
EXTT15=
PLAYORDER=
